<svg width="90" height="91" viewBox="0 0 90 91" fill="none" xmlns="http://www.w3.org/2000/svg">
<g clip-path="url(#clip0_1747_19883)">
<path d="M20.4502 55.6602L13.1109 26.2531C13.1109 26.2531 15.5298 23.3079 24.6213 21.8242C33.7127 20.3404 40.997 24.2525 50.0884 22.7688C52.7675 22.3315 54.8672 21.7674 56.4963 21.1891M61.5988 18.3399L65.2685 33.0434L68.9381 47.747C68.9381 47.747 66.5192 50.6921 57.4278 52.1759C48.3363 53.6596 41.0521 49.7475 31.9606 51.2313C29.739 51.5938 27.9159 52.0436 26.4291 52.5164" stroke="#201A19" stroke-width="2" stroke-linecap="round" stroke-linejoin="round"/>
<path d="M25.9518 25.0175L27.6303 27.2811L30.3367 27.1548L28.8299 29.4835L29.8328 32.1412L27.2231 31.3168L25.1375 33.0888L25.0311 30.2501L22.7392 28.6881L25.2827 27.7549L25.9518 25.0175Z" stroke="#201A19" stroke-width="2" stroke-linecap="round" stroke-linejoin="round"/>
<path d="M37.3552 22.2965L41.0249 37" stroke="#201A19" stroke-width="2"/>
<path d="M18.6158 48.3084C18.6158 48.3084 21.0346 45.3632 30.1261 43.8795C39.2176 42.3957 46.5018 46.3078 55.5933 44.8241C64.6848 43.3403 67.1037 40.3952 67.1037 40.3952" stroke="#201A19" stroke-width="2" stroke-linecap="round" stroke-linejoin="round"/>
<path d="M16.7808 40.9565C16.7808 40.9565 19.1997 38.0114 28.2912 36.5277C37.3827 35.0439 44.6669 38.956 53.7584 37.4722C62.8499 35.9885 65.2687 33.0434 65.2687 33.0434" stroke="#201A19" stroke-width="2" stroke-linecap="round" stroke-linejoin="round"/>
<path d="M63.4346 25.6917C63.4346 25.6917 61.0158 28.6369 51.9243 30.1206C47.3785 30.8624 43.2846 30.2554 39.1907 29.6483" stroke="#201A19" stroke-width="2" stroke-linecap="round" stroke-linejoin="round"/>
<path d="M24.7327 72.8143L20.4514 55.6601" stroke="#201A19" stroke-width="2" stroke-linecap="round" stroke-linejoin="round"/>
</g>
<defs>
<clipPath id="clip0_1747_19883">
<rect width="60" height="60" fill="white" transform="translate(9.65796 20.8796) rotate(-11.4101)"/>
</clipPath>
</defs>
</svg>
